<svg width="800" height="1470" viewBox="0 0 800 1470" fill="none" xmlns="http://www.w3.org/2000/svg">
<g opacity="0.05">
<path d="M195.1 0.100006L137.3 199.9L18.4 0.100006H195.1ZM136.7 195.3L192.6 1.89999H21.6L136.7 195.3Z" fill="#0096C9"/>
<path d="M447.2 90.7L445.6 91.5L391.1 0.100006H412.1L447.3 90.7H447.2ZM394.3 1.89999L441.6 81.2L410.8 1.89999H394.3Z" fill="#0096C9"/>
<path d="M447.8 91.6L135.6 199L193.1 0.100006H393.2L447.8 91.6ZM138.3 196.2L445 90.6L392.1 2H194.4L138.3 196.2Z" fill="#0096C9"/>
<path d="M185.2 965.6L-44 1109.8L-41.5 929.5L185.2 965.6ZM-42.2 1106.5L180.1 966.7L-39.6 931.7L-42.1 1106.5H-42.2Z" fill="#0096C9"/>
<path d="M199 853.2L183.4 967.2H182.5C182.5 967.1 -44.5 930.9 -44.5 930.9L199 853.2ZM181.8 965.1L196.7 855.9L-36.7 930.4L181.8 965.1Z" fill="#0096C9"/>
<path d="M201.1 854.4L-41 931.7L-41.4 931.1L-141.5 766.8L201.1 854.4ZM-40.2 929.5L194.5 854.6L-137.6 769.7L-40.2 929.5Z" fill="#0096C9"/>
<path d="M460.8 610.6L459.7 611.6L197 856.4L171.4 515.8L460.8 610.5V610.6ZM198.6 852.6L457.3 611.4L173.5 518.5L198.6 852.6Z" fill="#0096C9"/>
<path d="M890.8 842.6L670.1 979.6L669.1 978L889.8 841L890.8 842.6Z" fill="#0096C9"/>
<path d="M892.8 841.4L665.7 982.4L791 823.2H791.5L892.8 841.5V841.4ZM673.5 975.3L887.7 842.3L791.7 825.1L673.5 975.3Z" fill="#0096C9"/>
<path d="M461 612.6L171.2 517.8L284 281.9L461 612.6ZM173.8 516.7L457.2 609.5L284.1 285.9L173.8 516.7Z" fill="#0096C9"/>
<path d="M459.9 610.8L458.2 611.5L282.6 283.2L353.2 270.2L353.4 271L459.9 610.9V610.8ZM285.5 284.5L455.3 602L351.9 272.2L285.5 284.5Z" fill="#0096C9"/>
<path d="M284.9 284.2L172.8 518.6L138.3 486.7L283.3 283.2L284.9 284.1V284.2ZM172.2 515.7L278.7 293L140.7 486.6L172.2 515.6V515.7Z" fill="#0096C9"/>
<path d="M285.7 283.1L138.6 489.6L133.4 265.1H134.5C134.5 265.2 285.7 283.1 285.7 283.1ZM140.4 484L282.4 284.6L135.4 267.1L140.4 484Z" fill="#0096C9"/>
<path d="M451.1 84.1L353.2 272H352.7L281.7 285.2L451 84.1H451.1ZM352 270.4L441.7 98.1L286.4 282.5L352 270.4Z" fill="#0096C9"/>
<path d="M288.4 285.3L133.5 266.9L136.2 196.1L288.4 285.3ZM135.4 265.3L279.8 282.4L137.8 199.2L135.4 265.3Z" fill="#0096C9"/>
<path d="M449.2 89.1L284.2 285L283.5 284.6L134.7 197.4L136.6 196.7L449.2 89.1ZM283.8 282.6L443.5 93.1L139.1 197.9L283.8 282.7V282.6Z" fill="#0096C9"/>
<path d="M140.4 487.5L-19.6 508.2L-18.6 506.5L135.2 263L140.4 487.5ZM-15.9 505.8L138.5 485.9L133.6 269.1L-15.9 505.8Z" fill="#0096C9"/>
<path d="M199 855.8L-141.4 768.8L-140.1 767.6L140.2 515.4L199.1 855.8H199ZM-137.6 767.8L196.7 853.2L138.9 518.9L-137.6 767.8Z" fill="#0096C9"/>
<path d="M198.8 854.4L197 854.6L138.5 516.1H173.4L198.8 854.3V854.4ZM140.6 518.1L195.5 835.6L171.6 518.1H140.6Z" fill="#0096C9"/>
<path d="M141.8 516.5L140.1 517.9L-142.2 772L-18.3 506.1H-17.6L141.8 516.4V516.5ZM-136.8 764.6L137.3 518L-17.2 508L-136.8 764.6Z" fill="#0096C9"/>
<path d="M174.9 518.1H138.6V484.7L174.9 518.1ZM140.4 516.2H170.1L140.4 488.8V516.2Z" fill="#0096C9"/>
<path d="M140.4 485.7V518.1L-17.7999 507.9V506.1L140.4 485.7ZM138.6 516.2V487.8L-8.19993 506.8L138.6 516.2Z" fill="#0096C9"/>
<path d="M845.4 1470H754L840.3 1374.8L845.4 1470ZM758.2 1468.2H843.4L838.7 1379.3L758.2 1468.2Z" fill="#0096C9"/>
<path d="M293.8 987.7L181.6 966.9L197.2 852.1L293.7 987.7H293.8ZM183.7 965.4L289.6 985.2L198.4 857L183.7 965.4Z" fill="#0096C9"/>
<path d="M461.7 607.3L291.8 988.3L196.6 854.4L197.2 853.9L461.7 607.3ZM291.5 984.6L456.4 614.8L199.1 854.6L291.5 984.6Z" fill="#0096C9"/>
<path d="M562.5 529.5L452.6 617.4L532.2 521.2L562.4 529.5H562.5ZM465.5 604.8L558.5 530.3L532.9 523.4L465.4 604.8H465.5Z" fill="#0096C9"/>
<path d="M533.8 522.3L458.7 612.9L458.2 611.3L350 266L533.8 522.3ZM459.5 609.1L531.5 522.2L355.2 276.4L459.5 609.1Z" fill="#0096C9"/>
<path d="M901.8 0.100006L747.1 139L758.3 0.100006H901.7H901.8ZM749.3 134.5L897 2H760L749.3 134.5Z" fill="#0096C9"/>
<path d="M749 137.1L561 530.9L531.3 522.8L747.5 136.2L749.1 137L749 137.1ZM560 528.8L735.1 162L534 521.7L560 528.8Z" fill="#0096C9"/>
<path d="M750.2 135.1L532.8 524L351.1 270.7L352.3 270.3L750.3 135.1H750.2ZM532.5 520.6L746.2 138.4L354 271.7L532.5 520.6Z" fill="#0096C9"/>
<path d="M752.1 136.4L748.6 137.6L350.8 272.8L446 90.1L446.6 90.3L752.1 136.5V136.4ZM354.4 269.5L744.4 137L446.9 92L354.4 269.5Z" fill="#0096C9"/>
<path d="M900 1.7L748.8 137.4L747.6 136.1L898.8 0.399994L900 1.7Z" fill="#0096C9"/>
<path d="M347.4 1432.8L255.5 1470H55.9001V1469.2L42.1001 1309.6L43.5001 1310.2L347.4 1432.8ZM255.3 1468.2L342.5 1432.8L44.2001 1312.4L57.6001 1468.1H255.3V1468.2Z" fill="#0096C9"/>
<path d="M57.7001 1470H33.3L-8.69995 1359L43.9001 1309.1L57.7001 1470ZM34.6 1468.2H55.7001L42.4001 1313L-6.49995 1359.5L34.6 1468.2Z" fill="#0096C9"/>
<path d="M43.8 1311.7L-7.2 1360.2H-33.5L42.6 1310.3L43.7 1311.7H43.8ZM-8 1358.3L35.1 1317.4L-27.3 1358.3H-8Z" fill="#0096C9"/>
<path d="M44.3001 1311.4L-31.1999 1360.9L-44.2999 1103L44.3001 1311.3V1311.4ZM-29.4999 1357.6L42.0001 1310.7L-41.8999 1113.3L-29.4999 1357.6Z" fill="#0096C9"/>
<path d="M184.5 963.8L43.1001 1313.4L-44.2999 1107.7L184.5 963.7V963.8ZM43.1001 1308.7L180.7 968.4L-41.9999 1108.5L43.0001 1308.7H43.1001Z" fill="#0096C9"/>
<path d="M293.3 985.8L39.8 1317L182.1 965.1L293.3 985.8ZM46.5 1305.1L290 987L183.2 967.1L46.5 1305.1Z" fill="#0096C9"/>
<path d="M906.7 632.7L891.2 843L789.9 824.8L906.7 632.7ZM889.5 840.7L904.4 640.1L792.9 823.4L889.5 840.7Z" fill="#0096C9"/>
<path d="M841.2 1377.7L839.7 1377.9L483.1 1431.4L483.5 1430L613.5 1047.8L841.1 1377.7H841.2ZM485.8 1429.1L837.9 1376.3L614 1051.8L485.7 1429.1H485.8Z" fill="#0096C9"/>
<path d="M840.3 1376.5L838.8 1377.5L613 1050.3L614.6 1049.3L840.3 1376.5Z" fill="#0096C9"/>
<path d="M617.5 1049.6L436.1 1106.6L288.3 984.8L617.5 1049.6ZM436.4 1104.6L610.1 1050L295 988L436.4 1104.6Z" fill="#0096C9"/>
<path d="M670.3 979.4L614.5 1050.4L613.1 1049.2L668.9 978.2L670.3 979.4Z" fill="#0096C9"/>
<path d="M671.5 977.9L614.2 1050.9H613.6C613.6 1050.8 283.1 985.7 283.1 985.7L671.5 977.9ZM613.4 1048.8L667.7 979.8L300.2 987.2L613.4 1048.8Z" fill="#0096C9"/>
<path d="M354.6 1470H332.2L345 1429.3L354.6 1470ZM334.8 1468.2H352.3L344.9 1436.3L334.8 1468.2Z" fill="#0096C9"/>
<path d="M346.4 1431.2L334.2 1470H250.7L346.4 1431.2ZM332.8 1468.2L343.5 1434.4L260.2 1468.2H332.9H332.8Z" fill="#0096C9"/>
<path d="M485.8 1431.2L343.6 1433.8L344 1432.6L400.6 1245.1L485.8 1431.2ZM346.2 1431.8L483 1429.4L400.9 1250.3L346.2 1431.9V1431.8Z" fill="#0096C9"/>
<path d="M402.1 1246.5L345.5 1434L344.6 1433.6L39.8 1310.7L402.1 1246.5ZM344.4 1431.6L399.4 1248.8L46.4001 1311.4L344.3 1431.6H344.4Z" fill="#0096C9"/>
<path d="M615.8 1046.6L614.7 1050L484.5 1432.7L399.6 1247.4L615.8 1046.6ZM484.3 1427.8L611.8 1052.9L401.9 1247.8L484.3 1427.8Z" fill="#0096C9"/>
<path d="M402.1 1248.3L41 1312.3L42.5 1310.4L292 984.5L402.2 1248.2L402.1 1248.3ZM45.3 1309.8L399.5 1246.9L291.5 988.2L45.3 1309.7V1309.8Z" fill="#0096C9"/>
<path d="M617.4 1047.7L399.1 1250.4L435.5 1104.9L617.4 1047.8V1047.7ZM402.4 1244.9L610.2 1051.9L437 1106.3L402.4 1244.9Z" fill="#0096C9"/>
<path d="M437.3 1105.3L401 1250.6L289.4 983.3L437.3 1105.3ZM400.5 1244.7L435.2 1105.9L294 989.5L400.6 1244.7H400.5Z" fill="#0096C9"/>
<path d="M842.6 1375L756.5 1470H561.9L842.6 1375ZM755.7 1468.2L836.5 1379L573.1 1468.2H755.7Z" fill="#0096C9"/>
<path d="M457.7 1470H352.7L343.8 1431.4L457.8 1470H457.7ZM354.2 1468.2H446.6L346.3 1434.2L354.2 1468.2Z" fill="#0096C9"/>
<path d="M502.7 1470H451.9L339.8 1431.9L485.1 1429.3L502.8 1470H502.7ZM452.3 1468.2H500L483.9 1431.2L350.3 1433.6L452.3 1468.1V1468.2Z" fill="#0096C9"/>
<path d="M839.8 1377.9L567.6 1470H500.7L483.1 1429.6L839.4 1376.1L839.8 1377.9ZM567.3 1468.2L829.5 1379.5L485.8 1431L501.9 1468.2H567.3Z" fill="#0096C9"/>
<path d="M760.2 0.100006L748.8 140.9L696.5 0.100006H760.2ZM747.6 132.6L758.2 2H699.2L747.6 132.6Z" fill="#0096C9"/>
<path d="M749.7 137.9L445.2 91.8L480.2 0.100006H698.5L749.7 137.9ZM447.7 90.4L746.9 135.6L697.3 2H481.5L447.8 90.4H447.7Z" fill="#0096C9"/>
<path d="M482.1 0.100006L446.4 93.6L410 0.100006H482.1ZM446.4 88.6L479.5 2H412.8L446.5 88.6H446.4Z" fill="#0096C9"/>
<path d="M805.1 421.3L804.4 421.6L558.6 531.7L559.7 529.5L748.6 133.9L805 421.4L805.1 421.3ZM562.4 528L803 420.2L747.9 139.6L562.4 528Z" fill="#0096C9"/>
<path d="M670.7 979.7H669.6L289.2 987.3L624.5 680.1L624.8 681.8L670.7 979.6V979.7ZM294.1 985.4L668.6 977.9L623.3 683.8L294.1 985.4Z" fill="#0096C9"/>
<path d="M625.6 681.8L624.5 682.7L289 990L458.6 609.8L625.6 681.7V681.8ZM294.3 982.7L622.3 682.3L459.5 612.2L294.3 982.6V982.7Z" fill="#0096C9"/>
<path d="M792.6 824L792 824.7L669 981.1L622.6 679.8L792.6 824ZM670.2 976.6L790.1 824.2L625.2 684.3L670.2 976.6Z" fill="#0096C9"/>
<path d="M906.9 637.1L905.7 637.3L622.1 683.3L623.3 681.6L804.3 419L906.9 637.1ZM625.9 680.8L904.2 635.7L803.9 422.7L625.9 680.8Z" fill="#0096C9"/>
<path d="M625.6 683.8L457.3 611.3L560.9 528.4L625.6 683.8ZM460.8 610.8L622.2 680.2L560.1 531.3L460.8 610.8Z" fill="#0096C9"/>
<path d="M806.6 418.6L804.8 421.3L623.7 683.9L623 682.3L559.2 529.4L560 529L806.5 418.6H806.6ZM624.2 680.2L801.5 423L561.8 530.3L624.2 680.1V680.2Z" fill="#0096C9"/>
<path d="M43.1 1295.7C52.9 1295.7 60.9 1303.7 60.9 1313.5C60.9 1323.3 52.9 1331.3 43.1 1331.3C33.3 1331.3 25.4 1323.3 25.4 1313.5C25.4 1303.7 33.3 1295.7 43.1 1295.7Z" fill="#0096C9"/>
<path d="M196.1 834.5C205.9 834.5 213.9 842.5 213.9 852.3C213.9 862.1 206 870.1 196.1 870.1C186.2 870.1 178.3 862.1 178.3 852.3C178.3 842.5 186.3 834.5 196.1 834.5Z" fill="#0096C9"/>
<path d="M400.4 1237C408.2 1237 414.5 1243.3 414.5 1251.1C414.5 1258.9 408.2 1265.2 400.4 1265.2C392.6 1265.2 386.3 1258.9 386.3 1251.1C386.3 1243.3 392.6 1237 400.4 1237Z" fill="#0096C9"/>
<path d="M182.5 957.1C188 957.1 192.4 961.5 192.4 967.1C192.4 972.7 188 977 182.5 977C177 977 172.5 972.5 172.5 967.1C172.5 961.7 177 957.1 182.5 957.1Z" fill="#0096C9"/>
<path d="M343.5 1424.5C349 1424.5 353.4 1429 353.4 1434.4C353.4 1439.8 349 1444.3 343.5 1444.3C338 1444.3 333.6 1439.9 333.6 1434.4C333.6 1428.9 338 1424.5 343.5 1424.5Z" fill="#0096C9"/>
<path d="M136.1 250.6C143.8 250.6 150.2 256.9 150.2 264.7C150.2 272.5 143.9 278.8 136.1 278.8C128.3 278.8 122 272.5 122 264.7C122 256.9 128.3 250.6 136.1 250.6Z" fill="#0096C9"/>
<path d="M433.4 1086.5C443.2 1086.5 451.2 1094.5 451.2 1104.3C451.2 1114.1 443.3 1122.1 433.4 1122.1C423.5 1122.1 415.7 1114.1 415.7 1104.3C415.7 1094.5 423.6 1086.5 433.4 1086.5Z" fill="#0096C9"/>
<path d="M611.5 1039.6C618 1039.6 623.3 1044.9 623.3 1051.4C623.3 1057.9 618.1 1063.2 611.5 1063.2C604.9 1063.2 599.7 1057.9 599.7 1051.4C599.7 1044.9 605 1039.6 611.5 1039.6Z" fill="#0096C9"/>
<path d="M622 671.5C628.5 671.5 633.8 676.8 633.8 683.3C633.8 689.8 628.5 695.2 622 695.2C615.5 695.2 610.2 689.9 610.2 683.3C610.2 676.7 615.4 671.5 622 671.5Z" fill="#0096C9"/>
<path d="M804.4 408.2C810.9 408.2 816.2 413.5 816.2 420C816.2 426.5 810.9 431.8 804.4 431.8C797.9 431.8 792.6 426.5 792.6 420C792.6 413.5 797.8 408.2 804.4 408.2Z" fill="#0096C9"/>
<path d="M559.6 519C566.1 519 571.4 524.3 571.4 530.8C571.4 537.3 566.1 542.6 559.6 542.6C553.1 542.6 547.8 537.3 547.8 530.8C547.8 524.3 553.1 519 559.6 519Z" fill="#0096C9"/>
<path d="M445.1 79.2C451.6 79.2 456.9 84.5 456.9 91C456.9 97.5 451.6 102.8 445.1 102.8C438.6 102.8 433.3 97.5 433.3 91C433.3 84.5 438.6 79.2 445.1 79.2Z" fill="#0096C9"/>
<path d="M137.8 184.7C144.3 184.7 149.6 190 149.6 196.5C149.6 203 144.3 208.3 137.8 208.3C131.3 208.3 126 203 126 196.5C126 190 131.3 184.7 137.8 184.7Z" fill="#0096C9"/>
<path d="M354.7 260C361.2 260 366.5 265.3 366.5 271.8C366.5 278.3 361.2 283.6 354.7 283.6C348.2 283.6 342.9 278.3 342.9 271.8C342.9 265.3 348.2 260 354.7 260Z" fill="#0096C9"/>
<path d="M140 477C146.6 477 151.9 482.3 151.9 488.8C151.9 495.3 146.6 500.6 140 500.6C133.4 500.6 128.2 495.3 128.2 488.8C128.2 482.3 133.5 477 140 477Z" fill="#0096C9"/>
<path d="M171.8 510.6C175.6 510.6 178.7 513.7 178.7 517.5C178.7 521.3 175.6 524.4 171.8 524.4C168 524.4 164.9 521.4 164.9 517.5C164.9 513.6 168 510.6 171.8 510.6Z" fill="#0096C9"/>
<path d="M137.7 511.2C141.4 511.2 144.6 514.3 144.6 518.1C144.6 521.9 141.5 525 137.7 525C133.9 525 130.7 521.9 130.7 518.1C130.7 514.3 133.8 511.2 137.7 511.2Z" fill="#0096C9"/>
<path d="M280.8 272.8C287.3 272.8 292.6 278.1 292.6 284.6C292.6 291.1 287.3 296.4 280.8 296.4C274.3 296.4 269 291.1 269 284.6C269 278.1 274.3 272.8 280.8 272.8Z" fill="#0096C9"/>
<path d="M668.4 965.7C675 965.7 680.2 971 680.2 977.5C680.2 984 674.9 989.3 668.4 989.3C661.9 989.3 656.6 984 656.6 977.5C656.6 971 661.9 965.7 668.4 965.7Z" fill="#0096C9"/>
<path d="M484.9 1417.1C491.4 1417.1 496.7 1422.4 496.7 1428.9C496.7 1435.4 491.4 1440.7 484.9 1440.7C478.4 1440.7 473.1 1435.5 473.1 1428.9C473.1 1422.3 478.3 1417.1 484.9 1417.1Z" fill="#0096C9"/>
<path d="M790.6 812.2C797.1 812.2 802.4 817.5 802.4 824C802.4 830.5 797.1 835.8 790.6 835.8C784.1 835.8 778.8 830.5 778.8 824C778.8 817.5 784.1 812.2 790.6 812.2Z" fill="#0096C9"/>
<path d="M293.9 967.8C306.4 967.8 316.6 977.9 316.6 990.5C316.6 1003.1 306.4 1013.2 293.9 1013.2C281.4 1013.2 271.2 1003.1 271.2 990.5C271.2 977.9 281.4 967.8 293.9 967.8Z" fill="#0096C9"/>
<path d="M455.4 591.7C467.9 591.7 478.1 601.9 478.1 614.4C478.1 626.9 468 637 455.4 637C442.8 637 432.7 626.9 432.7 614.4C432.7 601.9 442.8 591.7 455.4 591.7Z" fill="#0096C9"/>
<path d="M742.3 114.5C754.8 114.5 765 124.7 765 137.2C765 149.7 754.9 159.9 742.3 159.9C729.7 159.9 719.6 149.7 719.6 137.2C719.6 124.7 729.7 114.5 742.3 114.5Z" fill="#0096C9"/>
<path d="M748 0.100006L629.2 199.9L571.4 0.100006H748ZM744.8 1.89999H573.8L629.7 195.3L744.8 1.89999Z" fill="#0096C9"/>
<path d="M354.4 0.100006H375.4L320.8 91.5L319.2 90.7L354.4 0.100006ZM355.6 1.89999L324.9 81.2L372.1 1.89999H355.6Z" fill="#0096C9"/>
<path d="M373.2 0.100006H573.3L630.8 199L318.6 91.6L373.2 0.100006ZM572 1.89999H374.3L321.4 90.5L628.1 196.1L572 1.89999Z" fill="#0096C9"/>
<path d="M807.9 929.5L810.5 1109.8L581.2 965.6L807.9 929.5ZM806.1 931.7L586.3 966.7L808.6 1106.5L806.1 931.7Z" fill="#0096C9"/>
<path d="M810.9 930.9L583.9 967H583C583 967.1 567.5 853.1 567.5 853.1L811 930.8L810.9 930.9ZM803 930.3L569.6 855.8L584.6 965L803.1 930.3H803Z" fill="#0096C9"/>
<path d="M907.9 766.9L807.8 931.2L807.4 931.8L565.3 854.5L907.9 766.9ZM904 769.7L572 854.6L806.6 929.5L904 769.7Z" fill="#0096C9"/>
<path d="M595 515.9L569.4 856.5L306.8 611.7L305.6 610.7L595 516V515.9ZM593 518.5L309.1 611.4L567.8 852.6L593 518.5Z" fill="#0096C9"/>
<path d="M-124.4 842.6L96.4001 979.6L97.3001 978L-123.4 841L-124.4 842.6Z" fill="#0096C9"/>
<path d="M-25.0999 823.2H-24.5999L100.8 982.4L-126.3 841.4L-25.0999 823.2ZM-25.2999 825.1L-121.4 842.3L92.8001 975.3L-25.2999 825.1Z" fill="#0096C9"/>
<path d="M482.4 281.8L595.3 517.7L305.5 612.5L482.4 281.8ZM482.2 285.8L309.2 609.4L592.6 516.6L482.2 285.8Z" fill="#0096C9"/>
<path d="M413 270.9L413.2 270.1L483.7 283.1L308.1 611.4L306.4 610.7L413 270.8V270.9ZM414.5 272.2L311.2 602L481 284.5L414.5 272.2Z" fill="#0096C9"/>
<path d="M483.1 283.3L628.2 486.8L593.7 518.7L481.5 284.3L483.1 283.4V283.3ZM625.6 486.6L487.7 293L594.1 515.7L625.5 486.7L625.6 486.6Z" fill="#0096C9"/>
<path d="M631.9 265.2H632.9C632.9 265.1 627.8 489.6 627.8 489.6L480.7 283.1L631.9 265.2ZM631 267.1L484 284.6L626.1 484L631 267.1Z" fill="#0096C9"/>
<path d="M484.6 285.2L413.7 272.1H413.2L315.3 84.2L484.6 285.3V285.2ZM479.9 282.4L324.6 98L414.4 270.3L479.9 282.4Z" fill="#0096C9"/>
<path d="M630.3 196.1L632.9 266.9L478.1 285.3L630.3 196.1ZM628.6 199.2L486.6 282.4L631 265.3L628.6 199.2Z" fill="#0096C9"/>
<path d="M629.7 196.7L631.6 197.4L482.8 284.6L482.1 285L317.1 89.1L629.7 196.7ZM627.3 197.8L322.9 93L482.5 282.5L627.3 197.7V197.8Z" fill="#0096C9"/>
<path d="M631.1 263L784.9 506.5L786 508.2L626 487.5L631.2 263H631.1ZM632.9 269.2L627.9 486L782.4 505.9L632.9 269.2Z" fill="#0096C9"/>
<path d="M626.3 515.4L906.6 767.6L907.9 768.8L567.6 855.8L626.4 515.4H626.3ZM627.5 519L569.7 853.3L904 767.9L627.5 519Z" fill="#0096C9"/>
<path d="M593 516.2H628L569.4 854.7L567.6 854.5L593 516.3V516.2ZM594.8 518.1L570.9 835.6L625.8 518.1H594.7H594.8Z" fill="#0096C9"/>
<path d="M784.1 506.1H784.7L908.6 771.9L626.3 517.8L624.7 516.4L784.1 506.1ZM783.6 508L629.1 518L903.2 764.6L783.7 508H783.6Z" fill="#0096C9"/>
<path d="M627.8 484.7V518.1H591.5L627.8 484.7ZM626 488.9L596.2 516.3H626V488.9Z" fill="#0096C9"/>
<path d="M784.3 506.1V507.9L626.1 518.1V485.7L784.3 506.1ZM774.6 506.7L627.8 487.7V516.1L774.6 506.7Z" fill="#0096C9"/>
<path d="M-73.8999 1374.8L12.4001 1470H-78.8999L-73.7999 1374.8H-73.8999ZM-72.2999 1379.2L-76.9999 1468.1H8.2001L-72.2999 1379.2Z" fill="#0096C9"/>
<path d="M569.2 852.1L584.8 966.9L472.6 987.7L569.2 852.1ZM568 857L476.8 985.2L582.8 965.4L568 857Z" fill="#0096C9"/>
<path d="M569.2 853.8L569.7 854.3L474.5 988.2L304.6 607.2L569.2 853.8ZM567.3 854.6L310 614.8L474.8 984.6L567.3 854.6Z" fill="#0096C9"/>
<path d="M234.1 521.2L313.8 617.4L203.9 529.5L234.1 521.2ZM233.5 523.3L207.9 530.2L301 604.7L233.5 523.3Z" fill="#0096C9"/>
<path d="M416.4 266L308.2 611.3L307.7 612.9L232.6 522.3L416.5 266H416.4ZM411.3 276.4L235 522.2L307 609.1L411.3 276.4Z" fill="#0096C9"/>
<path d="M8.1001 0.100006L19.3001 139L-135.4 0.100006H8.1001ZM6.40009 1.89999H-130.6L17.1001 134.5L6.40009 1.89999Z" fill="#0096C9"/>
<path d="M19 136.3L235.1 522.9L205.4 531L17.3 137.1L19 136.3ZM232.4 521.7L31.3 162L206.3 528.8L232.4 521.7Z" fill="#0096C9"/>
<path d="M414.2 270.3L415.3 270.7L233.7 524L16.2001 135.1L414.2 270.3ZM412.4 271.7L20.1001 138.4L233.9 520.6L412.4 271.7Z" fill="#0096C9"/>
<path d="M319.9 90.2L320.5 90L415.7 272.7L17.9 137.6L14.3 136.4L319.9 90.2ZM319.5 92L22 137.1L411.9 269.6L319.4 92.1L319.5 92Z" fill="#0096C9"/>
<path d="M-133.6 1.7L17.5 137.4L18.8 136.1L-132.3 0.399994L-133.6 1.7Z" fill="#0096C9"/>
<path d="M722.9 1310.2L724.4 1309.6L710.6 1469.2V1470H511L419 1432.8L723 1310.2H722.9ZM708.9 1468.2L722.3 1312.5L424 1432.9L511.2 1468.3H708.9V1468.2Z" fill="#0096C9"/>
<path d="M722.5 1309.1L775 1359L733 1470H708.6L722.4 1309.1H722.5ZM772.9 1359.5L724 1313L710.7 1468.2H731.8L772.9 1359.5Z" fill="#0096C9"/>
<path d="M723.8 1310.3L800 1360.2H773.7L722.7 1311.7L723.8 1310.3ZM793.8 1358.3L731.3 1317.4L774.4 1358.3H793.8Z" fill="#0096C9"/>
<path d="M810.7 1103L797.7 1360.9L722.1 1311.4L810.7 1103.1V1103ZM808.4 1113.3L724.4 1310.7L796 1357.6L808.3 1113.3H808.4Z" fill="#0096C9"/>
<path d="M810.7 1107.8L723.3 1313.5L581.9 963.9L810.7 1107.9V1107.8ZM808.4 1108.5L585.7 968.4L723.3 1308.7L808.3 1108.5H808.4Z" fill="#0096C9"/>
<path d="M584.4 965.1L726.7 1317L473.1 985.8L584.4 965.1ZM583.2 967.2L476.3 987.1L719.8 1305.2L583.1 967.2H583.2Z" fill="#0096C9"/>
<path d="M152.9 1047.8L282.9 1430L283.4 1431.4L-73.2 1377.9L-74.6 1377.7L153 1047.8H152.9ZM152.3 1051.8L-71.5 1376.3L280.6 1429.1L152.3 1051.8Z" fill="#0096C9"/>
<path d="M-73.8999 1376.5L-72.2999 1377.5L153.4 1050.3L151.9 1049.3L-73.8999 1376.5Z" fill="#0096C9"/>
<path d="M478.1 984.8L330.4 1106.6L148.9 1049.6L478.2 984.8H478.1ZM471.3 988L156.3 1050L329.9 1104.6L471.3 988Z" fill="#0096C9"/>
<path d="M96.1001 979.4L151.9 1050.4L153.3 1049.2L97.6001 978.2L96.1001 979.4Z" fill="#0096C9"/>
<path d="M483.3 985.7L152.8 1050.8H152.2C152.2 1050.9 94.9 977.9 94.9 977.9L483.3 985.7ZM466.2 987.2L98.8 979.8L153 1048.8L466.2 987.2Z" fill="#0096C9"/>
<path d="M421.3 1429.3L434.1 1470H411.8L421.3 1429.3ZM421.6 1436.3L414.2 1468.2H431.6L421.6 1436.3Z" fill="#0096C9"/>
<path d="M515.7 1470H432.2L420 1431.2L515.7 1470ZM506.2 1468.2L422.8 1434.4L433.5 1468.2H506.2Z" fill="#0096C9"/>
<path d="M365.9 1245L422.3 1432.5L422.7 1433.7L280.5 1431.1L365.8 1245H365.9ZM365.5 1250.3L283.4 1429.4L420.3 1431.8L365.6 1250.2L365.5 1250.3Z" fill="#0096C9"/>
<path d="M726.6 1310.7L421.8 1433.6L420.9 1434L364.4 1246.5L726.7 1310.7H726.6ZM720 1311.4L366.9 1248.8L422 1431.6L719.9 1311.4H720Z" fill="#0096C9"/>
<path d="M366.8 1247.4L281.8 1432.7L151.8 1050L150.6 1046.6L366.8 1247.4ZM364.5 1247.9L154.6 1053L282.1 1427.9L364.6 1247.9H364.5Z" fill="#0096C9"/>
<path d="M474.5 984.6L724 1310.5L725.4 1312.4L364.3 1248.4L474.4 984.7L474.5 984.6ZM475 988.3L367 1247L721.2 1309.9L475 988.4V988.3Z" fill="#0096C9"/>
<path d="M330.9 1104.9L367.3 1250.4L149 1047.7L330.9 1104.8V1104.9ZM329.4 1106.3L156.3 1051.9L364.1 1244.9L329.4 1106.3Z" fill="#0096C9"/>
<path d="M476.9 983.3L365.4 1250.6L329.1 1105.3L476.9 983.3ZM472.5 989.5L331.2 1105.9L365.9 1244.7L472.5 989.5Z" fill="#0096C9"/>
<path d="M204.5 1470H9.90002L-76.1 1375L204.6 1470H204.5ZM193.3 1468.2L-70.1 1379L10.7 1468.2H193.3Z" fill="#0096C9"/>
<path d="M422.7 1431.4L413.7 1470H308.7L422.7 1431.4ZM420.2 1434.2L319.8 1468.2H412.3L420.2 1434.2Z" fill="#0096C9"/>
<path d="M281.3 1429.3L426.7 1431.9L314.5 1469.9H263.6L281.3 1429.3ZM416.2 1433.6L282.6 1431.2L266.5 1468.2H314.2L416.2 1433.7V1433.6Z" fill="#0096C9"/>
<path d="M-72.9999 1376.1L283.3 1429.6L265.7 1470H198.8L-73.3999 1377.9L-72.9999 1376.1ZM264.5 1468.2L280.7 1431L-62.9999 1379.5L199.1 1468.2H264.5Z" fill="#0096C9"/>
<path d="M69.9001 0.100006L17.7001 140.9L6.20007 0.100006H69.8001H69.9001ZM67.2001 1.89999H8.20007L18.7001 132.5L67.2001 1.89999Z" fill="#0096C9"/>
<path d="M67.9001 0.100006H286.2L321.2 91.8L16.8 137.9L67.9001 0.100006ZM284.9 1.89999H69.2L19.6 135.5L318.7 90.3L285 1.89999H284.9Z" fill="#0096C9"/>
<path d="M356.4 0.100006L320 93.6L284.2 0.100006H356.4ZM353.7 1.89999H287L320 88.5L353.7 1.89999Z" fill="#0096C9"/>
<path d="M17.8 133.9L206.7 529.5L207.8 531.7L-38 421.6L-38.7 421.3L17.8 133.9ZM18.6001 139.7L-36.5 420.3L204.1 528.1L18.6001 139.7Z" fill="#0096C9"/>
<path d="M141.5 681.9L141.8 680.2L477.1 987.4L96.8001 979.8H95.7001L141.5 682V681.9ZM143.1 683.8L97.9001 977.9L472.3 985.4L143.1 683.8Z" fill="#0096C9"/>
<path d="M307.8 609.8L477.3 990L141.7 682.7L140.7 681.8L307.7 609.9L307.8 609.8ZM306.8 612.3L144.1 682.4L472 982.8L306.8 612.4V612.3Z" fill="#0096C9"/>
<path d="M143.8 679.7L97.4 981L-25.6 824.6L-26.1 823.9L143.9 679.7H143.8ZM141.2 684.3L-23.6 824.2L96.3 976.6L141.3 684.3H141.2Z" fill="#0096C9"/>
<path d="M-37.7999 419L143.2 681.6L144.5 683.3L-139.2 637.3L-140.4 637.1L-37.7999 419ZM-37.4999 422.7L-137.8 635.7L140.5 680.8L-37.4999 422.7Z" fill="#0096C9"/>
<path d="M205.5 528.4L309.1 611.3L140.7 683.8L205.5 528.4ZM206.2 531.3L144.2 680.2L305.6 610.8L206.3 531.3H206.2Z" fill="#0096C9"/>
<path d="M206.2 529L207 529.4L143.3 682.3L142.7 683.9L-38.2999 421.3L-40.2 418.6L206.3 529H206.2ZM204.7 530.3L-35 423L142.3 680.2L204.7 530.4V530.3Z" fill="#0096C9"/>
<path d="M723.3 1295.7C713.5 1295.7 705.5 1303.7 705.5 1313.5C705.5 1323.3 713.5 1331.3 723.3 1331.3C733.1 1331.3 741.1 1323.3 741.1 1313.5C741.1 1303.7 733.1 1295.7 723.3 1295.7Z" fill="#0096C9"/>
<path d="M570.3 834.5C560.6 834.5 552.6 842.5 552.6 852.3C552.6 862.1 560.6 870.1 570.3 870.1C580 870.1 588.1 862.1 588.1 852.3C588.1 842.5 580.2 834.5 570.3 834.5Z" fill="#0096C9"/>
<path d="M366 1237C358.2 1237 352 1243.3 352 1251.1C352 1258.9 358.3 1265.2 366 1265.2C373.7 1265.2 380.1 1258.9 380.1 1251.1C380.1 1243.3 373.8 1237 366 1237Z" fill="#0096C9"/>
<path d="M810.8 1092.4C803 1092.4 796.7 1098.7 796.7 1106.5C796.7 1114.3 803 1120.6 810.8 1120.6C818.6 1120.6 824.9 1114.3 824.9 1106.5C824.9 1098.7 818.6 1092.4 810.8 1092.4Z" fill="#0096C9"/>
<path d="M796 1350.4C792 1350.4 788.8 1353.6 788.8 1357.6C788.8 1361.6 792 1364.8 796 1364.8C800 1364.8 803.2 1361.6 803.2 1357.6C803.2 1353.6 800 1350.4 796 1350.4Z" fill="#0096C9"/>
<path d="M775.4 1355.4C773.1 1355.4 771.2 1357.2 771.2 1359.6C771.2 1362 773 1363.8 775.4 1363.8C777.8 1363.8 779.5 1362 779.5 1359.6C779.5 1357.2 777.7 1355.4 775.4 1355.4Z" fill="#0096C9"/>
<path d="M583.9 957.1C578.4 957.1 573.9 961.5 573.9 967.1C573.9 972.7 578.4 977 583.9 977C589.4 977 593.8 972.5 593.8 967.1C593.8 961.7 589.4 957.1 583.9 957.1Z" fill="#0096C9"/>
<path d="M807.8 921.6C802.3 921.6 797.8 926 797.8 931.5C797.8 937 802.3 941.4 807.8 941.4C813.3 941.4 817.7 937 817.7 931.5C817.7 926 813.3 921.6 807.8 921.6Z" fill="#0096C9"/>
<path d="M422.9 1424.5C417.4 1424.5 413 1429 413 1434.4C413 1439.8 417.4 1444.3 422.9 1444.3C428.4 1444.3 432.9 1439.9 432.9 1434.4C432.9 1428.9 428.4 1424.5 422.9 1424.5Z" fill="#0096C9"/>
<path d="M630.3 250.6C622.5 250.6 616.2 256.9 616.2 264.7C616.2 272.5 622.5 278.8 630.3 278.8C638.1 278.8 644.4 272.5 644.4 264.7C644.4 256.9 638.1 250.6 630.3 250.6Z" fill="#0096C9"/>
<path d="M333 1086.5C323.2 1086.5 315.2 1094.5 315.2 1104.3C315.2 1114.1 323.1 1122.1 333 1122.1C342.9 1122.1 350.8 1114.1 350.8 1104.3C350.8 1094.5 342.8 1086.5 333 1086.5Z" fill="#0096C9"/>
<path d="M154.9 1039.6C148.4 1039.6 143.1 1044.9 143.1 1051.4C143.1 1057.9 148.4 1063.2 154.9 1063.2C161.4 1063.2 166.7 1057.9 166.7 1051.4C166.7 1044.9 161.4 1039.6 154.9 1039.6Z" fill="#0096C9"/>
<path d="M144.5 671.5C138 671.5 132.7 676.8 132.7 683.3C132.7 689.8 138 695.2 144.5 695.2C151 695.2 156.3 689.9 156.3 683.3C156.3 676.7 151 671.5 144.5 671.5Z" fill="#0096C9"/>
<path d="M206.7 519C200.2 519 194.9 524.3 194.9 530.8C194.9 537.3 200.2 542.6 206.7 542.6C213.2 542.6 218.5 537.3 218.5 530.8C218.5 524.3 213.2 519 206.7 519Z" fill="#0096C9"/>
<path d="M321.2 79.2C314.7 79.2 309.4 84.5 309.4 91C309.4 97.5 314.6 102.8 321.2 102.8C327.8 102.8 333 97.5 333 91C333 84.5 327.7 79.2 321.2 79.2Z" fill="#0096C9"/>
<path d="M628.7 184.7C622.2 184.7 616.9 190 616.9 196.5C616.9 203 622.2 208.3 628.7 208.3C635.2 208.3 640.5 203 640.5 196.5C640.5 190 635.2 184.7 628.7 184.7Z" fill="#0096C9"/>
<path d="M411.7 260C405.2 260 399.9 265.3 399.9 271.8C399.9 278.3 405.2 283.6 411.7 283.6C418.2 283.6 423.5 278.3 423.5 271.8C423.5 265.3 418.2 260 411.7 260Z" fill="#0096C9"/>
<path d="M781.7 494.7C775.3 494.7 769.9 500 769.9 506.5C769.9 513 775.3 518.3 781.7 518.3C788.1 518.3 793.5 513 793.5 506.5C793.5 500 788.3 494.7 781.7 494.7Z" fill="#0096C9"/>
<path d="M626.4 477C619.9 477 614.6 482.3 614.6 488.8C614.6 495.3 619.9 500.6 626.4 500.6C632.9 500.6 638.2 495.3 638.2 488.8C638.2 482.3 632.9 477 626.4 477Z" fill="#0096C9"/>
<path d="M594.5 510.6C590.7 510.6 587.6 513.7 587.6 517.5C587.6 521.3 590.7 524.4 594.5 524.4C598.3 524.4 601.4 521.4 601.4 517.5C601.4 513.6 598.3 510.6 594.5 510.6Z" fill="#0096C9"/>
<path d="M628.9 511.2C625 511.2 621.9 514.3 621.9 518.1C621.9 521.9 625 525 628.9 525C632.8 525 635.8 521.9 635.8 518.1C635.8 514.3 632.7 511.2 628.9 511.2Z" fill="#0096C9"/>
<path d="M485.6 272.8C479.1 272.8 473.8 278.1 473.8 284.6C473.8 291.1 479.1 296.4 485.6 296.4C492.1 296.4 497.4 291.1 497.4 284.6C497.4 278.1 492.1 272.8 485.6 272.8Z" fill="#0096C9"/>
<path d="M98.0001 965.7C91.5001 965.7 86.2001 971 86.2001 977.5C86.2001 984 91.5001 989.3 98.0001 989.3C104.5 989.3 109.8 984 109.8 977.5C109.8 971 104.5 965.7 98.0001 965.7Z" fill="#0096C9"/>
<path d="M281.5 1417.1C275 1417.1 269.7 1422.4 269.7 1428.9C269.7 1435.4 275 1440.7 281.5 1440.7C288 1440.7 293.3 1435.5 293.3 1428.9C293.3 1422.3 288 1417.1 281.5 1417.1Z" fill="#0096C9"/>
<path d="M472.5 967.8C460 967.8 449.8 977.9 449.8 990.5C449.8 1003.1 459.9 1013.2 472.5 1013.2C485.1 1013.2 495.1 1003.1 495.1 990.5C495.1 977.9 485 967.8 472.5 967.8Z" fill="#0096C9"/>
<path d="M311 591.7C298.5 591.7 288.4 601.9 288.4 614.4C288.4 626.9 298.5 637 311 637C323.5 637 333.7 626.9 333.7 614.4C333.7 601.9 323.6 591.7 311 591.7Z" fill="#0096C9"/>
<path d="M24.1 114.5C11.6 114.5 1.40002 124.7 1.40002 137.2C1.40002 149.7 11.6 159.9 24.1 159.9C36.6 159.9 46.8 149.7 46.8 137.2C46.8 124.7 36.6 114.5 24.1 114.5Z" fill="#0096C9"/>
</g>
</svg>
