<svg width="80" height="81" viewBox="0 0 80 81" fill="none" xmlns="http://www.w3.org/2000/svg">
<path d="M70.1 35.2999C70.1 15.1999 53.1 -1.00004 32.6 0.399957C15.5 1.59996 1.60002 15.4 0.200021 32.5C-1.19998 50.4 10.9 65.8 27.5 69.5L33.3 79.5C34.1 80.9 36.1 80.9 36.9 79.5L42.7 69.5C58.4 66 70.1 52.1 70.1 35.4V35.2999Z" fill="url(#paint0_linear_1_2943)"/>
<g filter="url(#filter0_d_1_2943)">
<path d="M57.8411 45.333C62.9763 32.874 57.0392 18.6112 44.5803 13.4759C32.1213 8.34074 17.8584 14.2778 12.7232 26.7367C7.58799 39.1957 13.5251 53.4586 25.984 58.5938C38.443 63.729 52.7059 57.7919 57.8411 45.333Z" fill="white"/>
</g>
<path d="M46.3 32.5C45.6 32.5 45.1 32 45.1 31.3C45.1 29.7 43.8 28.5 42.3 28.5C40.8 28.5 39.5 29.8 39.5 31.3C39.5 32.8 39 32.5 38.3 32.5C37.6 32.5 37.1 32 37.1 31.3C37.1 28.4 39.5 26 42.4 26C45.3 26 47.7 28.4 47.7 31.3C47.7 34.2 47.2 32.5 46.5 32.5H46.3Z" fill="#00D579"/>
<path d="M44.5 38.3C45.6 38.3 46.3 39.5 45.7 40.4C43.6 43.7 39.9 45.9 35.7 45.9C31.5 45.9 27.8 43.7 25.7 40.4C25.1 39.5 25.8 38.3 26.9 38.3H44.4H44.5Z" fill="#00D579"/>
<path d="M32.4 32.5C31.7 32.5 31.2 32 31.2 31.3C31.2 29.7 29.9 28.5 28.4 28.5C26.9 28.5 25.6 29.8 25.6 31.3C25.6 32.8 25.1 32.5 24.4 32.5C23.7 32.5 23.2 32 23.2 31.3C23.2 28.4 25.6 26 28.5 26C31.4 26 33.8 28.4 33.8 31.3C33.8 34.2 33.3 32.5 32.6 32.5H32.4Z" fill="#00D579"/>
<defs>
<filter id="filter0_d_1_2943" x="9.47572" y="10.2285" width="69.6128" height="69.6128" filterUnits="userSpaceOnUse" color-interpolation-filters="sRGB">
<feFlood flood-opacity="0" result="BackgroundImageFix"/>
<feColorMatrix in="SourceAlpha" type="matrix" values="0 0 0 0 0 0 0 0 0 0 0 0 0 0 0 0 0 0 127 0" result="hardAlpha"/>
<feOffset dx="9" dy="9"/>
<feGaussianBlur stdDeviation="5.2"/>
<feColorMatrix type="matrix" values="0 0 0 0 0.427451 0 0 0 0 0.427451 0 0 0 0 0.427451 0 0 0 0.4 0"/>
<feBlend mode="normal" in2="BackgroundImageFix" result="effect1_dropShadow_1_2943"/>
<feBlend mode="normal" in="SourceGraphic" in2="effect1_dropShadow_1_2943" result="shape"/>
</filter>
<linearGradient id="paint0_linear_1_2943" x1="35.1" y1="0.299957" x2="35.1" y2="80.5" gradientUnits="userSpaceOnUse">
<stop stop-color="#00D579"/>
<stop offset="1" stop-color="#00A854"/>
</linearGradient>
</defs>
</svg>
