<svg width="561" height="107" viewBox="0 0 561 107" fill="none" xmlns="http://www.w3.org/2000/svg">
<path d="M233.2 76.2H239C243.1 76.2 245 78.3 245 81.1C245 83.9 242.8 86.2 240.7 86.7C242.2 87.3 244 88.8 244 91.7C244 96.5 240.6 99 235.8 99H228.3L233.2 76.1V76.2ZM230.3 97.7H236C239.5 97.7 242.3 95.7 242.3 92.1C242.3 88.5 240.8 87.4 236.9 87.4H232.4L230.2 97.7H230.3ZM237.5 86C241.2 86 243.4 84.2 243.4 81.4C243.4 78.6 242 77.7 238.8 77.7H234.5L232.8 86.1H237.5V86Z" fill="#0096C9"/>
<path d="M248.9 91.0001C248.7 91.7001 248.7 92.5001 248.7 93.2001C248.7 96.1 249.9 98.0001 252.6 98.0001C255.3 98.0001 256.8 95.7 257.5 94.6H259.1C258.5 96.1 256.9 99.5001 252.4 99.5001C247.9 99.5001 247.1 96.8 247.1 93.4C247.1 88.5 249.8 82.3 255.2 82.3C260.6 82.3 260.3 84.9 260.3 87.9C260.3 90.9 260.1 90.1001 259.9 91.0001H248.9ZM258.6 89.6C258.6 89 258.8 88.6001 258.8 88.0001C258.8 85.3001 257.6 83.7001 255 83.7001C252.4 83.7001 250 86.4 249.3 89.6H258.7H258.6Z" fill="#0096C9"/>
<path d="M265.3 82.6C265.8 90.8 266.1 95.7 266.1 97.4C267 95.4 268.4 92.7 273.5 82.6H275.2C275.8 92.9 275.9 95.7 275.8 97.3C276.5 95.5 278.6 91.5 283.1 82.6H284.8L276.3 99.1H274.5C274.2 93.5 273.9 87.1 273.9 84.6C272.9 87.1 270.1 92.5 266.8 99.1H264.9L263.8 82.6H265.3Z" fill="#0096C9"/>
<path d="M297 94.6001C296.6 96.5001 296.2 98.3001 296.1 99.1001H294.6C294.6 98.7001 294.9 97.1001 295.1 96.1001C294.2 97.8001 292.5 99.4001 289.8 99.4001C287.1 99.4001 284.9 98.3001 285.9 93.4001L288.2 82.5001H289.7L287.5 93.0001C286.9 95.8001 287.2 97.9001 290.1 97.9001C293 97.9001 295 96.1001 296 91.5001L297.9 82.6001H299.5L297 94.6001Z" fill="#0096C9"/>
<path d="M302.1 94.2001C302.1 96.5001 303.5 98.1 306.2 98.1C308.9 98.1 310 96.6 310 94.7001C310 92.8001 309.2 92.2001 306.6 91.0001C304 89.8001 302.7 89.0001 302.7 86.7001C302.7 84.4001 304.4 82.3 307.7 82.3C311 82.3 312.6 84.8001 312.6 87.2001H311.1C311.1 85.3001 310.2 83.7001 307.5 83.7001C304.8 83.7001 304.3 84.9 304.3 86.5C304.3 88.1 305 88.4001 307.3 89.5001C309.9 90.7001 311.7 91.8 311.7 94.4C311.7 97 309.9 99.4 306 99.4C302.1 99.4 300.6 97.3 300.6 94.1H302.2L302.1 94.2001Z" fill="#0096C9"/>
<path d="M315.1 82.6H318L319.1 77.6H320.6L319.5 82.6H323.2L322.9 84H319.2L316.7 95.7C316.4 97.2 316.7 97.9 318.1 97.9C319.5 97.9 319.7 97.7 320 97.6L319.7 99C319.1 99.3 318.2 99.4 317.6 99.4C315.8 99.4 314.4 98.7 315 95.7L317.6 84H314.7L315 82.6H315.1Z" fill="#0096C9"/>
<path d="M344.7 88.4C344.7 93.1 342.3 99.4 336.5 99.4C330.7 99.4 330.9 96.7001 330.9 93.0001C330.9 89.3001 333.5 82.3 339.3 82.3C345.1 82.3 344.7 84.7 344.7 88.4ZM332.5 92.9C332.5 95.7 333.6 98.0001 336.6 98.0001C341.1 98.0001 343 92.6 343 88.6C343 84.6 341.8 83.8 339 83.8C334.6 83.8 332.5 89 332.5 92.9Z" fill="#0096C9"/>
<path d="M349.1 87.7001C349.7 85.0001 350 83.3 350.2 82.5H351.7C351.7 83 351.4 84.2001 351.2 85.2001C352.3 83.6001 353.7 82.3 356 82.3C358.3 82.3 359.5 83.8 359.6 85.5C360.6 83.8 362.4 82.3 364.9 82.3C367.4 82.3 369.4 83.9 368.5 88.3L366.2 99.1H364.7L366.9 88.5001C367.4 86.1001 367.2 83.8 364.6 83.8C362 83.8 359.9 86.5001 359.3 89.5001L357.3 99.1H355.8L358 88.8C358.6 85.8 358.3 83.8 355.7 83.8C353.1 83.8 351.1 86.1 350.4 89.8L348.4 99.1H346.9L349.3 87.7001H349.1Z" fill="#0096C9"/>
<path d="M382.8 98.4C381.6 103.6 379.7 106.1 375.3 106.1C370.9 106.1 370 103.4 370.1 101.2H371.6C371.6 103.7 373.1 104.7 375.5 104.7C379.1 104.7 380.3 102.3 381.3 98.1L381.8 95.9C380.5 98.1 378.8 99.1 376.4 99.1C374 99.1 371.6 96.8001 371.6 93.0001C371.6 89.2001 374.4 82.3 379.7 82.3C385 82.3 383.8 83.8 384 85.3C384.2 84.3 384.5 83 384.7 82.5H386.2C386 83.3 385.6 85.0001 385.1 87.2001L382.7 98.3L382.8 98.4ZM373.4 93.0001C373.4 95.7001 374.3 97.7001 376.9 97.7001C379.5 97.7001 382.3 94.2001 383 90.7001C383.8 87.2001 383.5 83.8 379.6 83.8C375.7 83.8 373.3 89.3001 373.3 93.0001H373.4Z" fill="#0096C9"/>
<path d="M398.9 95.5001C398.7 96.4001 398.3 98.3 398.2 99.1H396.7C396.7 98.4 396.9 97.7001 397.2 96.5001C396.5 97.8001 395.1 99.4 391.9 99.4C388.7 99.4 387.5 97.1 387.5 95.1C387.5 92 389.8 89.9001 394.4 89.5001C395.8 89.4001 396.7 89.3 398.6 89.3L398.9 88.1C399.4 85.9 399 83.7001 395.6 83.7001C392.2 83.7001 391.9 85.2 391.3 86.9H389.7C390.3 84.5 391.9 82.3 395.8 82.3C399.7 82.3 401.4 83.9 400.5 88.1L398.9 95.5001ZM398.4 90.6C397 90.6 395.7 90.6 394.5 90.7001C391.4 91.0001 389.2 92.2 389.2 94.9C389.2 97.6 390.2 97.9 392.3 97.9C396.1 97.9 397.6 94.7001 398.2 91.7001L398.4 90.6Z" fill="#0096C9"/>
<path d="M414.3 95.5001C414.1 96.4001 413.7 98.3 413.6 99.1H412.1C412.1 98.4 412.3 97.7001 412.6 96.5001C411.9 97.8001 410.5 99.4 407.3 99.4C404.1 99.4 402.9 97.1 402.9 95.1C402.9 92 405.2 89.9001 409.8 89.5001C411.2 89.4001 412.1 89.3 414 89.3L414.3 88.1C414.8 85.9 414.4 83.7001 411 83.7001C407.6 83.7001 407.3 85.2 406.7 86.9H405.1C405.7 84.5 407.3 82.3 411.2 82.3C415.1 82.3 416.8 83.9 415.9 88.1L414.3 95.5001ZM413.8 90.6C412.4 90.6 411.1 90.6 409.9 90.7001C406.8 91.0001 404.6 92.2 404.6 94.9C404.6 97.6 405.6 97.9 407.7 97.9C411.5 97.9 413 94.7001 413.6 91.7001L413.8 90.6Z" fill="#0096C9"/>
<path d="M421.1 87.8C421.8 84.3 422.1 83.2 422.2 82.6H423.7C423.7 83.2 423.4 84.4 423.1 85.5C424 84 425.5 82.3 428.4 82.3C431.3 82.3 433.4 84.2 432.4 88.6L430.2 99.1H428.6L430.8 88.7001C431.3 86.2001 430.9 83.8 428.1 83.8C425.3 83.8 422.8 86.8001 422 90.7001L420.2 99.1H418.6L421 87.7001L421.1 87.8Z" fill="#0096C9"/>
<path d="M445.7 87.7001C446.3 85.0001 446.6 83.3 446.8 82.5H448.3C448.3 83 448 84.2001 447.8 85.2001C448.9 83.6001 450.3 82.3 452.6 82.3C454.9 82.3 456.1 83.8 456.2 85.5C457.2 83.8 459 82.3 461.5 82.3C464 82.3 466 83.9 465.1 88.3L462.8 99.1H461.3L463.5 88.5001C464 86.1001 463.8 83.8 461.2 83.8C458.6 83.8 456.5 86.5001 455.9 89.5001L453.9 99.1H452.4L454.6 88.8C455.2 85.8 454.9 83.8 452.3 83.8C449.7 83.8 447.7 86.1 447 89.8L445 99.1H443.5L445.9 87.7001H445.7Z" fill="#0096C9"/>
<path d="M470.1 91.0001C469.9 91.7001 469.9 92.5001 469.9 93.2001C469.9 96.1 471.1 98.0001 473.8 98.0001C476.5 98.0001 478 95.7 478.7 94.6H480.3C479.7 96.1 478.1 99.5001 473.6 99.5001C469.1 99.5001 468.3 96.8 468.3 93.4C468.3 88.5 471 82.3 476.4 82.3C481.8 82.3 481.5 84.9 481.5 87.9C481.5 90.9 481.3 90.1001 481.1 91.0001H470.1ZM479.8 89.6C479.8 89 480 88.6001 480 88.0001C480 85.3001 478.8 83.7001 476.2 83.7001C473.6 83.7001 471.2 86.4 470.5 89.6H479.9H479.8Z" fill="#0096C9"/>
<path d="M484.5 82.6H487.4L488.5 77.6H490L488.9 82.6H492.6L492.3 84H488.6L486.1 95.7C485.8 97.2 486.1 97.9 487.5 97.9C488.9 97.9 489.1 97.7 489.4 97.6L489.1 99C488.5 99.3 487.6 99.4 487 99.4C485.2 99.4 483.8 98.7 484.4 95.7L487 84H484.1L484.4 82.6H484.5Z" fill="#0096C9"/>
<path d="M511 95.5001C510.8 96.4001 510.4 98.3 510.3 99.1H508.8C508.8 98.4 509 97.7001 509.3 96.5001C508.6 97.8001 507.2 99.4 504 99.4C500.8 99.4 499.6 97.1 499.6 95.1C499.6 92 501.9 89.9001 506.5 89.5001C507.9 89.4001 508.8 89.3 510.7 89.3L511 88.1C511.5 85.9 511.1 83.7001 507.7 83.7001C504.3 83.7001 504 85.2 503.4 86.9H501.8C502.4 84.5 504 82.3 507.9 82.3C511.8 82.3 513.5 83.9 512.6 88.1L511 95.5001ZM510.5 90.6C509.1 90.6 507.8 90.6 506.6 90.7001C503.5 91.0001 501.3 92.2 501.3 94.9C501.3 97.6 502.3 97.9 504.4 97.9C508.2 97.9 509.7 94.7001 510.3 91.7001L510.5 90.6Z" fill="#0096C9"/>
<path d="M517.6 96.4L515.7 105.8H514.2L518.1 87.5001C518.6 85.2001 518.9 83.6 519.1 82.6H520.6C520.6 83.2 520.3 84.5 520.1 85.5C521.3 83.6 523.1 82.3 525.5 82.3C527.9 82.3 530.4 84.5001 530.4 88.5001C530.4 92.5001 528.1 99.4 522.2 99.4C516.3 99.4 518.2 98.1 517.7 96.4H517.6ZM528.5 88.7001C528.5 85.4001 527.2 83.8 525 83.8C521.7 83.8 519.6 86.9 518.7 90.9C517.9 94.5 518.4 97.9 522.2 97.9C526 97.9 528.5 91.8001 528.5 88.7001Z" fill="#0096C9"/>
<path d="M534.5 96.4L532.6 105.8H531.1L535 87.5001C535.5 85.2001 535.8 83.6 536 82.6H537.5C537.5 83.2 537.2 84.5 537 85.5C538.2 83.6 540 82.3 542.4 82.3C544.8 82.3 547.3 84.5001 547.3 88.5001C547.3 92.5001 545 99.4 539.1 99.4C533.2 99.4 535.1 98.1 534.6 96.4H534.5ZM545.4 88.7001C545.4 85.4001 544.1 83.8 541.9 83.8C538.6 83.8 536.5 86.9 535.6 90.9C534.8 94.5 535.3 97.9 539.1 97.9C542.9 97.9 545.4 91.8001 545.4 88.7001Z" fill="#0096C9"/>
<path d="M550.3 94.2001C550.3 96.5001 551.7 98.1 554.4 98.1C557.1 98.1 558.2 96.6 558.2 94.7001C558.2 92.8001 557.4 92.2001 554.8 91.0001C552.2 89.8001 550.9 89.0001 550.9 86.7001C550.9 84.4001 552.6 82.3 555.9 82.3C559.2 82.3 560.8 84.8001 560.8 87.2001H559.3C559.3 85.3001 558.4 83.7001 555.7 83.7001C553 83.7001 552.5 84.9 552.5 86.5C552.5 88.1 553.2 88.4001 555.5 89.5001C558.1 90.7001 559.9 91.8 559.9 94.4C559.9 97 558.1 99.4 554.2 99.4C550.3 99.4 548.8 97.3 548.8 94.1H550.4L550.3 94.2001Z" fill="#0096C9"/>
<path d="M134.5 38.1L129.5 53.8H122.1C125.3 44.3 135.8 10.8 139.4 0H148.9L167 53.8H159L153.9 38.1H134.5ZM152.2 31.7C147.9 18.4 145.1 10.5 144 6H143.9C142.4 12.3 139.7 20.6 136.2 31.7H152.2Z" fill="#003377"/>
<path d="M181.2 49.2V69.4H174V25.7C174 20.3 174 16.5 173.9 14H181C181.1 15.3 181.2 18 181.2 20.2C183 16.4 186.8 13.2 193.4 13.2C200 13.2 208.3 19.9 208.3 33.2C208.3 46.5 201.2 54.3 191.8 54.3C182.4 54.3 182.9 52.1 181.3 49.1L181.2 49.2ZM200.8 33.5C200.8 24.1 197.1 19.4 191 19.4C184.9 19.4 180.9 24.6 180.9 34C180.9 43.4 182.6 48.3 190.6 48.3C198.6 48.3 200.8 43 200.8 33.5Z" fill="#003377"/>
<path d="M223.9 49.2V69.4H216.7V25.7C216.7 20.3 216.7 16.5 216.6 14H223.7C223.8 15.3 223.9 18 223.9 20.2C225.7 16.4 229.5 13.2 236.1 13.2C242.7 13.2 251 19.9 251 33.2C251 46.5 243.9 54.3 234.5 54.3C225.1 54.3 225.6 52.1 224 49.1L223.9 49.2ZM243.5 33.5C243.5 24.1 239.8 19.4 233.7 19.4C227.6 19.4 223.6 24.6 223.6 34C223.6 43.4 225.3 48.3 233.3 48.3C241.3 48.3 243.5 43 243.5 33.5Z" fill="#003377"/>
<path d="M266.9 0V53.8H259.4V0H266.9Z" fill="#003377"/>
<path d="M277.9 26.5C277.9 18.2 277.9 15.8 277.7 14.1H284.8C284.9 14.8 285.1 18.4 285.1 20.1C286.7 16.6 290.3 13.3 296.7 13.3C303.1 13.3 309.3 17.7 309.3 28.1V53.8H302V29.3C302 23.8 300.2 19.6 294.5 19.6C288.8 19.6 285.1 24.4 285.1 32.4V53.8H277.9V26.5Z" fill="#003377"/>
<path d="M323.7 42.1C324.4 46.4 327.6 48.9 332.2 48.9C336.8 48.9 339.5 46.3 339.5 43.1C339.5 39.9 337 38 330.4 36.2C320.6 33.5 318 29.9 318 24.6C318 19.3 321.5 13.4 331.7 13.4C341.9 13.4 345.3 18.7 345.8 24.9H338.7C338.1 21.9 336.5 18.9 331.3 18.9C326.1 18.9 325.2 20.9 325.2 24C325.2 27.1 326.7 28.3 333.2 30C343.5 32.7 346.7 36.3 346.7 42.6C346.7 48.9 340.7 54.6 332 54.6C323.3 54.6 317.3 50.6 316.6 42.3H323.7V42.1Z" fill="#003377"/>
<path d="M361.9 49.2V69.4H354.7V25.7C354.7 20.3 354.7 16.5 354.6 14H361.7C361.8 15.3 361.9 18 361.9 20.2C363.7 16.4 367.5 13.2 374.1 13.2C380.7 13.2 389 19.9 389 33.2C389 46.5 381.9 54.3 372.5 54.3C363.1 54.3 363.6 52.1 362 49.1L361.9 49.2ZM381.5 33.5C381.5 24.1 377.8 19.4 371.7 19.4C365.6 19.4 361.6 24.6 361.6 34C361.6 43.4 363.3 48.3 371.3 48.3C379.3 48.3 381.5 43 381.5 33.5Z" fill="#003377"/>
<path d="M402.3 35.4C402.3 42.8 405.3 48.6 412.1 48.6C418.9 48.6 420 44.4 420.7 42.4H427.8C426.4 47.7 422.4 54.5 411.7 54.5C401 54.5 394.8 44.9 394.8 33.8C394.8 22.7 399.6 13.3 412.1 13.3C424.6 13.3 428.4 23 428.4 32.3C428.4 41.6 428.4 35 428.4 35.4H402.2H402.3ZM421.4 30.2C421.2 23.9 418.7 19 412.1 19C405.5 19 402.8 25.7 402.5 30.2H421.4Z" fill="#003377"/>
<path d="M467.9 40.9C466.4 48.7 461.4 54.5 451.7 54.5C442 54.5 434.7 47.1 434.7 33.9C434.7 20.7 440.7 13.3 452.1 13.3C463.5 13.3 467.3 21 467.8 27.3H460.5C459.8 23 457.5 19.1 451.9 19.1C446.3 19.1 442.1 25.2 442.1 33.7C442.1 42.2 445.6 48.7 451.8 48.7C458 48.7 459.3 45.4 460.6 40.9H467.9Z" fill="#003377"/>
<path d="M471.9 14.1H478.1V2.70001H485.3V14.1H493.1V20H485.3V44C485.3 47.2 486.1 48.6 489.5 48.6C492.9 48.6 491.5 48.6 492.4 48.4V53.7C490.8 54.3 488.4 54.4 487 54.4C480.9 54.4 478.1 52 478.1 45.3V20.1H471.9V14.2V14.1Z" fill="#003377"/>
<path d="M532.5 33.3C532.5 44.8 527.4 54.5 514.5 54.5C501.6 54.5 497 44.4 497 33.5C497 22.6 502.7 13.3 515 13.3C527.3 13.3 532.5 22 532.5 33.3ZM504.5 33.4C504.5 42.4 508.1 48.5 514.9 48.5C521.7 48.5 525 42.5 525 33.3C525 24.1 521.6 19.2 514.6 19.2C507.6 19.2 504.4 25 504.4 33.3L504.5 33.4Z" fill="#003377"/>
<path d="M541 27.5C541 21.1 541 16.1 540.8 14H547.9C548 15.8 548.1 18.4 548.1 21.8C549.9 17.2 554.1 13.3 560.8 13.3V20.8C552 21 548.2 25.8 548.2 34.5V53.7H541V27.5Z" fill="#003377"/>
<path d="M3.1 29.5H0V0H29.4V3.1H3.1V29.5Z" fill="#0096C9"/>
<path d="M106 29.5H102.9V3.1H76.6V0H106V29.5Z" fill="#0096C9"/>
<path d="M106 106.1H76.6V102.9H102.9V76.6H106V106.1Z" fill="#0096C9"/>
<path d="M29.4 106.1H0V76.6H3.1V102.9H29.4V106.1Z" fill="#0096C9"/>
<path d="M52.2 72.5V53.7H33.8C34 63.9 42.1 72.1 52.2 72.5Z" fill="#003377"/>
<path d="M32.1 53.6H21.8C22 70.4 35.5 84 52.2 84.4V74.1C41.2 73.7 32.3 64.7 32.1 53.6Z" fill="#003377"/>
<path d="M33.8 52H52.2V34C42.4 34.4 34.4 42.2 33.8 52Z" fill="#003377"/>
<path d="M20.1 53.6H8.2C8.4 77.9 28 97.6 52.2 98V86.1C34.6 85.7 20.4 71.3 20.1 53.6Z" fill="#003377"/>
<path d="M85.9 52H97.9C97.5 38.7 91.4 26.8 81.8 18.8L74.3 28.1C81.1 33.9 85.5 42.4 85.9 51.9V52Z" fill="#003377"/>
<path d="M21.8 52H32.1C32.7 41.3 41.4 32.7 52.2 32.3V22C35.8 22.4 22.4 35.6 21.8 52Z" fill="#003377"/>
<path d="M52.2 20.3V8.40002C28.2 8.80002 8.8 28.1 8.2 52H20.2C20.8 34.7 34.9 20.8 52.3 20.3H52.2Z" fill="#003377"/>
<path d="M53.8 86.1V98C78 97.6 97.6 77.9 97.8 53.6H85.9C85.7 71.3 71.4 85.6 53.8 86.1Z" fill="#003377"/>
<path d="M72.3 53.6H53.9V72.4C64 72 72.1 63.7 72.3 53.6Z" fill="#003377"/>
<path d="M53.8 74.1V84.4C70.5 84 84 70.3 84.2 53.6H73.9C73.7 64.7 64.8 73.6 53.8 74.1Z" fill="#003377"/>
<path d="M65.8 38.8L55.2 52H72.3C72 46.8 69.5 42.1 65.8 38.8Z" fill="#003377"/>
<path d="M73.9 52H84.2C83.9 43 79.7 34.9 73.2 29.4L66.7 37.5C70.8 41.1 73.5 46.2 73.8 52H73.9Z" fill="#003377"/>
<path d="M31.9 85.4C35.1585 85.4 37.8 82.7585 37.8 79.5C37.8 76.2415 35.1585 73.6 31.9 73.6C28.6415 73.6 26 76.2415 26 79.5C26 82.7585 28.6415 85.4 31.9 85.4Z" fill="url(#paint0_linear_5_11)"/>
<path d="M70.6 70.9C73.8585 70.9 76.5 68.2585 76.5 65C76.5 61.7415 73.8585 59.1 70.6 59.1C67.3415 59.1 64.7 61.7415 64.7 65C64.7 68.2585 67.3415 70.9 70.6 70.9Z" fill="url(#paint1_linear_5_11)"/>
<path d="M53.4 52V8.40002C63.7 8.40002 73.1 11.9 80.6 17.9" fill="#0096C9"/>
<path d="M64.7 27C67.9585 27 70.6 24.3585 70.6 21.1C70.6 17.8415 67.9585 15.2 64.7 15.2C61.4415 15.2 58.8 17.8415 58.8 21.1C58.8 24.3585 61.4415 27 64.7 27Z" fill="url(#paint2_linear_5_11)"/>
<defs>
<linearGradient id="paint0_linear_5_11" x1="34.9" y1="75.8" x2="27.5" y2="85" gradientUnits="userSpaceOnUse">
<stop stop-color="#59BA7C"/>
<stop offset="0.8" stop-color="#009636"/>
</linearGradient>
<linearGradient id="paint1_linear_5_11" x1="65.9" y1="-40.6001" x2="76.4" y2="67.9" gradientUnits="userSpaceOnUse">
<stop stop-color="#FFA75D"/>
<stop offset="0.9" stop-color="#FF7807"/>
</linearGradient>
<linearGradient id="paint2_linear_5_11" x1="62.4" y1="26.2" x2="67.3" y2="15.5" gradientUnits="userSpaceOnUse">
<stop stop-color="#EA5959"/>
<stop offset="0.2" stop-color="#E95454"/>
<stop offset="0.4" stop-color="#E74848"/>
<stop offset="0.6" stop-color="#E53434"/>
<stop offset="0.9" stop-color="#E11717"/>
<stop offset="1" stop-color="#DE0000"/>
</linearGradient>
</defs>
</svg>
