<svg width="29" height="31" viewBox="0 0 29 31" fill="none" xmlns="http://www.w3.org/2000/svg">
<path d="M7.59998 2.10004L2.29999 7.40002H7.59998V2.10004Z" fill="#0096C9"/>
<path d="M22.2 22.4L23.7 20.9L28.9 26.1L27.4 27.6L22.2 22.4Z" fill="#0096C9"/>
<path d="M16.5 21.9C15.2 21.9 13.9 21.5 12.9 20.8H4.5V19.7H11.4C10.6 18.8 10 17.8 9.70001 16.6H4.40002V15.5H9.5V15.1C9.5 14.1 9.69998 13.2 10.1 12.4H4.40002V11.3H10.7C12 9.50002 14 8.30002 16.3 8.30002C18.6 8.30002 20.8 9.60002 22 11.4V0.900024H8.5V8.70004H0.700012V30.5H22V18.9C20.8 20.7 18.7 22 16.3 22L16.5 21.9Z" fill="#0096C9"/>
<path d="M12.4 18.9001C13.5 20.0001 14.9 20.7001 16.5 20.7001C19.7 20.7001 22.2 18.1001 22.2 15.0001C22.2 11.9001 19.6 9.30005 16.5 9.30005C13.4 9.30005 12.1 10.8 11.2 12.8H17.2V14.9001H10.8C10.8 15.7001 10.9 16.3001 11.1 16.9001H17.2V19.0001H12.3L12.4 18.9001Z" fill="#0096C9"/>
</svg>
